<svg xmlns="http://www.w3.org/2000/svg" version="1.1" xmlns:xlink="http://www.w3.org/1999/xlink" width="1000" height="1000"><metadata><rdf:RDF xmlns:rdf="http://www.w3.org/1999/02/22-rdf-syntax-ns#" xmlns:dc="http://purl.org/dc/elements/1.1/"><rdf:Description><dc:creator>RealFaviconGenerator</dc:creator><dc:source>https://realfavicongenerator.net</dc:source></rdf:Description></rdf:RDF></metadata><g clip-path="url(#SvgjsClipPath1114)"><rect width="1000" height="1000" fill="#000000"></rect><g transform="matrix(2.0199299757608404,0,0,2.0199299757608404,49.99999999999997,384.9346889307837)"><svg xmlns="http://www.w3.org/2000/svg" id="Layer_2" viewBox="0 0 445.56 113.93" width="445.56" height="113.93"><defs>
    <style>
      .cls-1 {
        fill: #fff;
      }
    </style>
  <clipPath id="SvgjsClipPath1114"><rect width="1000" height="1000" x="0" y="0" rx="350" ry="350"></rect></clipPath></defs><g id="Layer_1-2" data-name="Layer_1">
    <g>
      <g>
        <path class="cls-1" d="M0,1.63C0,.49.49,0,1.63,0h39.38c24.41,0,37.11,11.72,37.11,31.74s-12.69,31.74-37.11,31.74H13.67v48.82c0,1.14-.49,1.63-1.63,1.63H1.63c-1.14,0-1.63-.49-1.63-1.63V1.63ZM13.67,50.46h29.46c13.99,0,20.67-5.86,20.67-18.72s-6.67-18.71-20.67-18.71H13.67v37.43Z"></path>
        <path class="cls-1" d="M157.56,80.89h-46.54l-11.23,31.41c-.33,1.14-.65,1.63-1.95,1.63h-10.91c-1.14,0-1.79-.49-1.79-1.63,0-.32,0-.49.16-.97L125.67,1.63c.32-1.14.49-1.63,1.63-1.63h14c1.14,0,1.3.49,1.63,1.63l40.36,109.69c.16.48.16.65.16.97,0,1.14-.65,1.63-1.79,1.63h-10.9c-1.3,0-1.63-.49-1.95-1.63l-11.23-31.41ZM115.74,67.87h37.11l-18.55-51.42-18.55,51.42Z"></path>
      </g>
      <g>
        <path class="cls-1" d="M262.12,1.63c0-1.14.49-1.63,1.63-1.63h39.39c24.41,0,37.1,11.72,37.1,31.74s-12.69,31.74-37.1,31.74h-27.35v48.82c0,1.14-.48,1.63-1.62,1.63h-10.42c-1.14,0-1.63-.49-1.63-1.63V1.63ZM275.79,50.46h29.46c14,0,20.67-5.86,20.67-18.72s-6.67-18.71-20.67-18.71h-29.46v37.43Z"></path>
        <path class="cls-1" d="M419.68,80.89h-46.54l-11.23,31.41c-.33,1.14-.66,1.63-1.95,1.63h-10.91c-1.14,0-1.79-.49-1.79-1.63,0-.32,0-.49.16-.97L387.79,1.63c.32-1.14.48-1.63,1.62-1.63h14c1.14,0,1.3.49,1.63,1.63l40.36,109.69c.17.48.17.65.17.97,0,1.14-.66,1.63-1.79,1.63h-10.9c-1.3,0-1.63-.49-1.95-1.63l-11.23-31.41ZM377.86,67.87h37.11l-18.55-51.42-18.55,51.42Z"></path>
      </g>
    </g>
  </g></svg></g></g></svg>